# xmcd
#
# Track frame offsets:
#   150
#   11250
#   53325
#   69150
#   93450
#   103725
#   126675
#   137625
#   161550
#   181650
#   209475
#
# Disc length: 3151 seconds
#
# Revision: 0
# Processed by: cddbd v1.5.2PL0 Copyright (c) Steve Scherf et al.
# Submitted via: uFREEDB 1.6.2
#
DISCID=8e0c4d0b
DTITLE=y6 - we
DYEAR=1900
DGENRE=Children's Music
TTITLE0=0169
TTITLE1=0170
TTITLE2=0171
TTITLE3=172
TTITLE4=0173
TTITLE5=0174
TTITLE6=0175
TTITLE7=0176
TTITLE8=0178
TTITLE9=0177
TTITLE10=0179
EXTD=
EXTT0=
EXTT1=
EXTT2=
EXTT3=
EXTT4=
EXTT5=
EXTT6=
EXTT7=
EXTT8=
EXTT9=
EXTT10=
PLAYORDER=
